<svg width="52" height="53" viewBox="0 0 52 53" fill="none" xmlns="http://www.w3.org/2000/svg">
<path d="M26.1247 46.01C26.1445 46.42 26.1544 46.84 26.1544 47.25C26.1544 47.25 26.1544 46.42 26.1841 46.01C26.8073 32.38 37.5802 19.53 50.9548 18.92C49.9854 15.49 48.3432 12.35 46.1867 9.66C34.7114 13.78 26.1544 29.44 26.1544 41.85C26.1544 29.44 17.5974 13.78 6.12215 9.66C3.9557 12.35 2.32344 15.49 1.35398 18.92C14.7286 19.53 25.5015 32.39 26.1247 46.01ZM26.1544 36.36C26.1544 35.99 26.1544 35.62 26.1742 35.24C26.56 25.36 31.9316 11.55 39.7071 3.88C35.7699 1.41 31.1303 -0.00999832 26.1544 -0.00999832C21.1785 -0.00999832 16.5389 1.42 12.6017 3.88C20.3772 11.55 25.7488 25.36 26.1346 35.24C26.1544 35.62 26.1544 35.99 26.1544 36.36ZM0.354839 26.1C0.354839 40.52 11.9092 52.2 26.1544 52.2C26.1544 37.78 14.6099 26.1 0.354839 26.1ZM51.954 26.1C51.954 40.52 40.3996 52.2 26.1544 52.2C26.1544 37.78 37.6989 26.1 51.954 26.1Z" fill="#FF7000"/>
</svg>
