<svg width="73" height="73" viewBox="0 0 73 73" fill="none" xmlns="http://www.w3.org/2000/svg">
<path d="M36.37 64.22C36.4 64.8 36.41 65.37 36.41 65.95C36.41 65.95 36.42 64.79 36.45 64.22C37.33 45.2 52.52 27.26 71.4 26.4C70.03 21.62 67.72 17.23 64.67 13.48C48.48 19.23 36.41 41.09 36.41 58.41C36.41 41.09 24.33 19.23 8.15 13.48C5.1 17.24 2.78 21.62 1.42 26.4C20.3 27.26 35.5 45.2 36.38 64.22M36.41 50.76C36.41 50.25 36.42 49.73 36.44 49.2C36.98 35.41 44.57 16.13 55.53 5.43C49.97 1.99 43.42 0 36.41 0C29.4 0 22.84 1.99 17.28 5.43C28.25 16.13 35.83 35.41 36.37 49.2C36.39 49.73 36.4 50.25 36.4 50.76M0 36.44C0 56.56 16.3 72.88 36.4 72.88C36.4 52.76 20.1 36.44 0 36.44ZM72.81 36.44C72.81 56.56 56.51 72.88 36.41 72.88C36.41 52.76 52.71 36.44 72.81 36.44Z" fill="white"/>
</svg>
